<svg xmlns="http://www.w3.org/2000/svg" viewBox="0 0 240 60" width="240" height="60">
  <g fill="#BC0024">
    <!-- C -->
    <path d="M42.8 15.2c-5.8-3.4-12.8-4.9-20.2-4.1C10.7 12.5 1.5 22.8.2 34.8c-1.3 12.3 6.9 23.3 19.1 25.1 7.2 1.1 14.3-.7 19.9-4.8 2.2-1.6 2.2-3.8.3-5.2-1.7-1.3-3.6-.9-5.7.5-4.1 2.8-8.9 3.9-13.8 3-7.5-1.4-12.8-7.8-12.2-15.5.6-7.8 7-13.9 14.8-14.2 4.4-.2 8.4 1 12 3.5 1.8 1.3 3.6 1.4 5.2-.2 1.9-1.9 1.7-4.2-.3-5.6l3.3-6.2z"/>
    <!-- A -->
    <path d="M72.5 11.8h-9.8c-2.1 0-3.8 1.4-4.5 3.3L42.5 58.4h11.2l2.9-8.4h14.8l2.9 8.4h11.5L72.5 11.8zm-9.3 29.8 4.5-13.4 4.5 13.4H63.2z"/>
    <!-- N -->
    <path d="M92.2 11.8h9.8v26.4l20.4-26.4h10.2v46.6h-9.8V29.8L102.4 58.4H92.2V11.8z"/>
    <!-- O -->
    <path d="M163.5 11.1c-13.6 0-24.6 10.7-24.6 23.9s11 24 24.6 24 24.6-10.7 24.6-23.9c0-13.3-11-24-24.6-24zm0 37.8c-7.7 0-13.8-6.2-13.8-13.9s6.1-13.8 13.8-13.8 13.8 6.2 13.8 13.8-6.1 13.9-13.8 13.9z"/>
    <!-- N -->
    <path d="M196.4 11.8h9.8v26.4l20.4-26.4h10.2v46.6H227V29.8l-20.4 28.6h-10.2V11.8z"/>
  </g>
</svg>
